<svg width="124" height="45" viewBox="0 0 124 45" fill="none" xmlns="http://www.w3.org/2000/svg">
<path d="M12.6321 34.4974C11.6623 34.4974 10.8457 34.2164 10.1822 33.6542C9.51871 33.0409 9.18696 32.2487 9.18696 31.2777V11.2692C9.18696 9.73595 8.42138 8.96934 6.89022 8.96934H3.13888C2.22018 8.96934 1.4546 8.68825 0.842138 8.12607C0.280713 7.51278 0 6.74617 0 5.82624C0 4.9063 0.280713 4.16525 0.842138 3.60307C1.4546 2.98978 2.22018 2.68313 3.13888 2.68313H22.0487C23.0184 2.68313 23.784 2.98978 24.3454 3.60307C24.9579 4.16525 25.2641 4.9063 25.2641 5.82624C25.2641 6.74617 24.9579 7.51278 24.3454 8.12607C23.784 8.68825 23.0184 8.96934 22.0487 8.96934H18.3739C16.8428 8.96934 16.0772 9.73595 16.0772 11.2692V31.2777C16.0772 32.2487 15.7454 33.0409 15.0819 33.6542C14.4695 34.2164 13.6528 34.4974 12.6321 34.4974Z" fill="white"/>
<path d="M37.0708 34.4974C33.6512 34.4974 30.8696 33.4242 28.726 31.2777C26.6334 29.0801 25.5871 26.167 25.5871 22.5383C25.5871 18.9097 26.6079 16.0477 28.6494 13.9523C30.742 11.8058 33.4726 10.7325 36.8411 10.7325C39.24 10.7325 41.3325 11.5758 43.1189 13.2624C43.323 12.6491 43.7058 12.138 44.2673 11.7291C44.8287 11.3203 45.4922 11.1158 46.2578 11.1158C47.2785 11.1158 48.0952 11.4225 48.7076 12.0358C49.3711 12.598 49.7029 13.2879 49.7029 14.1056V31.5077C49.7029 32.3765 49.3711 33.092 48.7076 33.6542C48.0952 34.2164 47.2785 34.4974 46.2578 34.4974C44.5735 34.4974 43.5272 33.7564 43.1189 32.2743C41.4857 33.7564 39.4696 34.4974 37.0708 34.4974ZM37.6067 28.2879C39.24 28.2879 40.5414 27.7513 41.5112 26.678C42.4809 25.5537 42.9658 24.1738 42.9658 22.5383C42.9658 20.8518 42.4809 19.4974 41.5112 18.4753C40.5414 17.4532 39.24 16.9421 37.6067 16.9421C36.0245 16.9421 34.723 17.4532 33.7023 18.4753C32.7325 19.4974 32.2477 20.8518 32.2477 22.5383C32.2477 24.1738 32.7325 25.5537 33.7023 26.678C34.723 27.7513 36.0245 28.2879 37.6067 28.2879Z" fill="white"/>
<path d="M63.4157 34.4974C59.9451 34.4974 57.0869 33.7819 54.8412 32.3509C54.3819 32.0443 54.0501 31.6865 53.846 31.2777C53.6418 30.8177 53.5397 30.3833 53.5397 29.9744C53.5397 29.1056 53.8205 28.3135 54.3819 27.598C54.9944 26.8825 55.7344 26.5247 56.6021 26.5247C57.0104 26.5247 57.4187 26.6269 57.827 26.8313C58.7457 27.2402 59.792 27.598 60.9659 27.9046C62.1398 28.1601 63.2116 28.2879 64.1813 28.2879C66.0697 28.2879 67.0139 27.8535 67.0139 26.9847C67.0139 26.4736 66.7843 26.0392 66.3249 25.6814C65.8656 25.2726 64.7938 24.9915 63.1095 24.8382C62.446 24.7871 61.5783 24.6848 60.5065 24.5315C59.4857 24.3782 58.465 24.0971 57.4442 23.6882C56.4234 23.2283 55.5558 22.5639 54.8412 21.6951C54.1777 20.8262 53.846 19.6508 53.846 18.1687C53.846 15.8688 54.7136 14.0545 56.4489 12.7257C58.1843 11.3969 60.5065 10.7325 63.4157 10.7325C65.1 10.7325 66.6822 10.9114 68.1623 11.2692C69.6935 11.6269 70.8419 12.1635 71.6074 12.879C72.322 13.5434 72.6792 14.3101 72.6792 15.1789C72.6792 15.9455 72.3985 16.6354 71.8371 17.2487C71.2757 17.862 70.5611 18.1687 69.6935 18.1687C69.2341 18.1687 68.8003 18.0664 68.392 17.862C67.7795 17.4532 66.9884 17.1465 66.0187 16.9421C65.1 16.7376 64.1558 16.6354 63.186 16.6354C61.2466 16.6354 60.2768 17.0443 60.2768 17.862C60.2768 18.2198 60.4555 18.552 60.8128 18.8586C61.2211 19.1141 62.1142 19.3441 63.4923 19.5486C64.3599 19.6508 65.3552 19.8041 66.478 20.0085C67.6009 20.1618 68.6727 20.4685 69.6935 20.9284C70.7653 21.3373 71.6585 22.0273 72.373 22.9983C73.0875 23.9693 73.4448 25.2981 73.4448 26.9847C73.4448 29.2845 72.5261 31.1244 70.6887 32.5043C68.8513 33.833 66.427 34.4974 63.4157 34.4974Z" fill="white"/>
<path d="M81.1036 34.4974C80.1339 34.4974 79.3173 34.2164 78.6537 33.6542C77.9902 33.092 77.6585 32.3765 77.6585 31.5077V2.98978C77.6585 2.17206 77.9647 1.48211 78.5772 0.919931C79.2407 0.306644 80.0828 0 81.1036 0C82.0733 0 82.8644 0.306644 83.4769 0.919931C84.0894 1.48211 84.3956 2.19762 84.3956 3.06644V16.2521C84.3956 16.8654 84.5742 17.1721 84.9315 17.1721C85.0336 17.1721 85.2377 17.0698 85.544 16.8654L92.9701 11.3458C93.5826 10.937 94.2461 10.7325 94.9606 10.7325C95.8283 10.7325 96.5428 11.0392 97.1042 11.6525C97.6656 12.2658 97.9464 12.9813 97.9464 13.799C97.9464 14.9233 97.436 15.8177 96.4152 16.4821L90.3671 20.4685C89.8567 20.8262 89.6015 21.2095 89.6015 21.6184C89.6015 22.0273 89.8057 22.3595 90.214 22.615L97.1808 28.9012C97.6401 29.2589 97.9464 29.6678 98.0995 30.1278C98.2526 30.5877 98.3292 31.0221 98.3292 31.431C98.3292 32.2487 97.9974 32.9642 97.3339 33.5775C96.7214 34.1908 95.9814 34.4974 95.1137 34.4974C94.2461 34.4974 93.4805 34.1652 92.817 33.5009L85.3143 26.1414C85.1612 25.9881 84.9825 25.9114 84.7784 25.9114C84.5232 25.9114 84.3956 26.1158 84.3956 26.5247V31.431C84.3956 32.2998 84.0639 33.0409 83.4003 33.6542C82.7879 34.2164 82.0223 34.4974 81.1036 34.4974Z" fill="white"/>
<path d="M99.8842 13.799C99.8842 12.7768 100.241 12.0102 100.956 11.4992C101.671 10.9881 102.487 10.7325 103.406 10.7325C104.12 10.7325 104.733 10.937 105.243 11.3458C105.805 11.7036 106.187 12.2147 106.392 12.8791L111.138 24.4549C111.393 25.1193 111.751 25.4515 112.21 25.4515C112.669 25.4515 113.001 25.1193 113.205 24.4549L117.339 12.8791C117.595 12.1635 118.003 11.6269 118.564 11.2692C119.177 10.9114 119.815 10.7325 120.478 10.7325C121.346 10.7325 122.137 11.0136 122.852 11.5758C123.617 12.138 124 12.8791 124 13.799C124 14.3101 123.898 14.7956 123.694 15.2555L111.751 42.8535C111.393 43.6201 110.934 44.1567 110.373 44.4634C109.862 44.8211 109.326 45 108.765 45C107.846 45 107.004 44.6678 106.239 44.0034C105.524 43.3901 105.167 42.6491 105.167 41.7802C105.167 41.3203 105.269 40.9114 105.473 40.5537L109.607 33.1942C108.739 32.9387 108.05 32.2998 107.54 31.2777L100.114 15.1789C99.9608 14.7189 99.8842 14.2589 99.8842 13.799Z" fill="#F5F876"/>
</svg>
