<svg width="25" height="24" viewBox="0 0 25 24" fill="none" xmlns="http://www.w3.org/2000/svg">
<path fill-rule="evenodd" clip-rule="evenodd" d="M11.335 12.0066L11.3366 12.3607C11.3487 13.7652 11.4334 15.0183 11.5794 15.8124C11.5794 15.8267 11.7387 16.6143 11.8401 16.8764C11.9994 17.2554 12.2874 17.577 12.6485 17.7808C12.9376 17.9262 13.2408 18 13.5583 18C13.8078 17.9884 14.2194 17.8629 14.5131 17.7576L14.7572 17.664C16.3739 17.0218 19.4644 14.9234 20.648 13.6402L20.7353 13.5505L21.1247 13.1302C21.3702 12.8085 21.5 12.4153 21.5 11.9923C21.5 11.6134 21.3844 11.2344 21.1531 10.9282C21.0839 10.829 20.9723 10.7017 20.8731 10.5942L20.494 10.1974C19.1895 8.87572 16.3652 7.02183 14.9012 6.40756C14.9012 6.39435 13.9914 6.01432 13.5583 6H13.5005C12.8361 6 12.2154 6.37892 11.8979 6.99137C11.8112 7.1588 11.728 7.48678 11.6648 7.77483L11.551 8.31871C11.4212 9.19332 11.335 10.535 11.335 12.0066ZM5.00325 10.4817C4.17308 10.4817 3.5 11.1613 3.5 11.9996C3.5 12.8378 4.17308 13.5175 5.00325 13.5175L8.70248 13.1903C9.35375 13.1903 9.88174 12.6583 9.88174 11.9996C9.88174 11.3419 9.35375 10.8088 8.70248 10.8088L5.00325 10.4817Z" fill="white"/>
</svg>
